<?xml version="1.0" standalone="no"?>
<!DOCTYPE svg PUBLIC "-//W3C//DTD SVG 20010904//EN"
 "http://www.w3.org/TR/2001/REC-SVG-20010904/DTD/svg10.dtd">
<svg version="1.0" xmlns="http://www.w3.org/2000/svg"
 width="36.000000pt" height="36.000000pt" viewBox="0 0 36.000000 36.000000"
 preserveAspectRatio="xMidYMid meet">
<metadata>
Created by potrace 1.16, written by Peter Selinger 2001-2019
</metadata>
<g transform="translate(0.000000,36.000000) scale(0.016000,-0.016000)"
fill="#000000" stroke="none">
<path d="M970 1673 c-58 -9 -158 -47 -202 -74 -131 -84 -188 -209 -188 -413 0
-120 -24 -251 -65 -356 -48 -121 -60 -196 -45 -260 21 -88 114 -190 199 -219
48 -16 83 -14 140 8 47 18 49 18 72 0 77 -60 287 -82 401 -41 32 11 70 29 85
40 26 18 31 19 56 5 15 -7 50 -17 76 -20 92 -11 203 63 259 172 42 83 33 177
-33 335 -31 73 -55 224 -55 347 0 111 -17 192 -57 266 -53 97 -169 174 -303
203 -60 13 -279 17 -340 7z m332 -44 c119 -26 214 -85 266 -167 33 -50 62
-145 62 -199 l0 -33 -505 0 -505 0 0 33 c0 54 29 149 62 199 50 80 127 129
249 162 66 18 296 21 371 5z m328 -419 c0 -7 -175 -10 -505 -10 -330 0 -505 3
-505 10 0 7 175 10 505 10 330 0 505 -3 505 -10z m-984 -184 l22 -55 -34 -50
c-31 -46 -34 -56 -34 -126 0 -73 2 -79 35 -120 41 -49 103 -95 130 -95 10 0
68 33 129 74 126 84 191 110 251 101 56 -8 136 -47 214 -103 127 -93 131 -93
222 -4 l69 68 0 75 c0 68 -3 78 -35 126 l-35 52 21 57 c12 31 25 52 29 47 4
-4 13 -44 20 -88 6 -44 25 -111 41 -149 34 -79 59 -171 59 -213 0 -38 -65
-130 -117 -166 -63 -43 -95 -36 -216 45 -87 59 -195 107 -257 114 -38 4 -76 1
-120 -10 -61 -16 -92 -32 -259 -136 -39 -24 -77 -40 -95 -40 -42 0 -93 37
-144 102 -33 43 -42 63 -42 95 0 44 21 121 55 204 13 30 31 99 41 152 9 53 20
97 23 97 3 0 16 -24 27 -54z m556 22 c22 -6 67 -36 100 -66 62 -55 119 -86
182 -97 40 -8 44 -15 38 -72 -3 -29 -14 -54 -37 -80 l-32 -38 -40 36 c-56 50
-125 96 -190 126 -104 48 -212 17 -359 -105 l-67 -55 -34 39 c-27 33 -33 47
-33 89 l0 50 74 22 c59 18 86 33 129 73 91 84 173 107 269 78z m32 -464 c26
-8 78 -34 115 -56 36 -23 90 -56 120 -75 40 -24 67 -33 98 -33 38 0 50 6 93
46 28 26 50 44 50 40 0 -15 -77 -89 -111 -107 -69 -35 -113 -27 -261 48 -120
61 -140 68 -203 71 -69 3 -72 3 -214 -67 -154 -75 -191 -84 -255 -57 -39 16
-113 80 -127 110 -7 14 -1 11 17 -9 90 -99 131 -100 282 -5 131 82 169 99 237
109 57 9 90 6 159 -15z"/>
</g>
</svg>
